<svg xmlns="http://www.w3.org/2000/svg" xmlns:xlink="http://www.w3.org/1999/xlink" width="55" height="55" viewBox="0 0 14.552 14.552"><defs><linearGradient id="a"><stop offset="0" style="stop-color:#a80;stop-opacity:1"/><stop offset=".852" style="stop-color:#a80;stop-opacity:1"/><stop offset=".852" style="stop-color:#a80;stop-opacity:.08235294"/><stop offset="1" style="stop-color:#a80;stop-opacity:0"/></linearGradient><linearGradient xlink:href="#a" id="b" x1="6.057" x2="6.333" y1="9.844" y2="10.951" gradientTransform="translate(-.9 .128)" gradientUnits="userSpaceOnUse"/><linearGradient xlink:href="#a" id="c" x1="7.758" x2="7.94" y1="9.506" y2="10.638" gradientTransform="translate(-.902 .11)" gradientUnits="userSpaceOnUse"/></defs><path d="m6.264 7.291-1.288.995c.189.234.435 1.48.425 2.574a19 19 0 0 1-.138 2.052l1.624.212s.142-1.04.153-2.25.03-2.578-.776-3.583" style="color:#000;fill:#666;stroke-width:.811625;-inkscape-stroke:none"/><path d="M6.654 2.824c-1.888 0-3.3 1.293-3.3 3.249.047.55.727 2.29 1.846 2.43 1.118.138 1.028 1.152 2.696 1.501.797.079 1.657.159 2.134-.27 2.847-2.556-.664-2.655-.664-3.633 0-1.956-.823-3.277-2.712-3.277" style="opacity:1;fill:#d4aa00;stroke:none;stroke-width:.2;stroke-dasharray:none;stroke-opacity:1"/><ellipse cx="8.037" cy="4.874" rx=".355" ry=".393" style="opacity:1;fill:#1a1a1a;stroke-width:.236388"/><ellipse cx="6.697" cy="5.456" rx=".402" ry=".449" style="opacity:1;fill:#1a1a1a;stroke-width:.269071"/><ellipse cx="5.419" cy="10.843" rx=".458" ry=".729" style="opacity:1;fill:#d4aa00;fill-opacity:1;stroke:url(#b);stroke-width:.0811857;stroke-dasharray:none;stroke-opacity:1" transform="matrix(.9527 -.30388 .33581 .94193 0 0)"/><ellipse cx="4.133" cy="12.612" rx=".3" ry=".543" style="opacity:1;fill:#28220b;stroke-width:.255249" transform="matrix(.75755 -.65278 .4498 .89313 0 0)"/><path d="M7.59 6.494c.17.078-.246.461-.703.642s-.883.187-.952.014c-.069-.174.246-.462.703-.643.457-.18.745-.11.953-.013" style="color:#000;fill:#d4aa00;stroke-width:.1;-inkscape-stroke:none"/><path d="M9.114 5.769a.37 1.002 69.45 0 0-.703.152.37 1.002 69.45 0 0-.796.697.37 1.002 69.45 0 0 1.078-.015.37 1.002 69.45 0 0 .63-.359.4.4 0 0 1-.02-.115q0-.177-.011-.346a.37 1.002 69.45 0 0-.178-.014" style="opacity:1;fill:#d4aa00;fill-opacity:1;stroke:none;stroke-width:5.26982;stroke-dasharray:none;stroke-opacity:1"/><path d="M6.654 2.824c-1.888 0-3.3 1.293-3.3 3.249.047.55.727 2.29 1.846 2.43 1.118.138 1.028 1.152 2.696 1.501.797.079 1.657.159 2.134-.27 2.847-2.556-.664-2.655-.664-3.633 0-1.956-.823-3.277-2.712-3.277z" style="opacity:1;fill:none;stroke:#a80;stroke-width:.2;stroke-dasharray:none;stroke-opacity:1"/><ellipse cx="7.065" cy="10.301" rx=".375" ry=".562" style="opacity:1;fill:#d4aa00;fill-opacity:1;stroke:url(#c);stroke-width:.0672566;stroke-dasharray:none;stroke-opacity:1" transform="matrix(.9462 -.3236 .3567 .93422 0 0)"/><ellipse cx="7.193" cy="10.375" rx=".278" ry=".448" style="opacity:1;fill:#28220b;stroke-width:.223396" transform="matrix(.94266 -.33375 .34557 .9384 0 0)"/><path d="M5.14 9.904c2.043.302 2.037.3 2.037.3l.072.574L5 10.566Z" style="opacity:1;fill:#b3b3b3;fill-opacity:1;stroke:none;stroke-width:.0629067;stroke-dasharray:none;stroke-opacity:1"/><path d="M5.096 11.456c2.063.083 2.057.084 2.057.084l.181-.46-2.246-.19Z" style="opacity:1;fill:#b3b3b3;fill-opacity:1;stroke:none;stroke-width:.0575396;stroke-dasharray:none;stroke-opacity:1"/><path d="m7.143 11.729-2.058.08-.128.47 2.257.011Z" style="opacity:1;fill:#b3b3b3;fill-opacity:1;stroke:none;stroke-width:.0574596;stroke-dasharray:none;stroke-opacity:1"/><ellipse cx="3.597" cy="7.044" rx=".836" ry="1.138" style="fill:#ffe680;fill-opacity:1;stroke:#a80;stroke-width:.1;stroke-dasharray:none;stroke-opacity:1" transform="rotate(-10.605)"/><path d="M4.623 5.143a1.138.836 79.395 0 0-.613 1.273l.822-.154Z" style="fill:#1a1a1a;fill-opacity:1;stroke:none;stroke-width:.0425362;stroke-dasharray:none;stroke-opacity:1"/><path d="M5.653 6.108a1.138.836 79.395 0 1-.611 1.273l-.21-1.12Z" style="fill:#1a1a1a;fill-opacity:1;stroke:none;stroke-width:.0425362;stroke-dasharray:none;stroke-opacity:1"/><ellipse cx="3.597" cy="7.044" rx=".836" ry="1.138" style="fill:none;fill-opacity:1;stroke:#4d4d4d;stroke-width:.1;stroke-dasharray:none;stroke-opacity:1" transform="rotate(-10.605)"/></svg>
