<svg xmlns="http://www.w3.org/2000/svg" xmlns:xlink="http://www.w3.org/1999/xlink" width="330" height="55" viewBox="0 0 87.312 14.552"><defs><linearGradient id="a"><stop offset="0" style="stop-color:#a80;stop-opacity:1"/><stop offset=".852" style="stop-color:#a80;stop-opacity:1"/><stop offset=".852" style="stop-color:#a80;stop-opacity:.08235294"/><stop offset="1" style="stop-color:#a80;stop-opacity:0"/></linearGradient><linearGradient xlink:href="#a" id="b" x1="6.057" x2="6.333" y1="9.844" y2="10.951" gradientTransform="translate(-1.727 -.204)" gradientUnits="userSpaceOnUse"/><linearGradient xlink:href="#a" id="c" x1="7.758" x2="7.94" y1="9.506" y2="10.638" gradientTransform="translate(-1.721 -.24)" gradientUnits="userSpaceOnUse"/></defs><g transform="matrix(1.71355 0 0 1.6665 -3.616 -4.438)"><path d="m5.364 7.23-1.287.995c.188.235.435 1.48.425 2.575a19 19 0 0 1-.139 2.051l1.624.212s.142-1.04.153-2.25.03-2.578-.776-3.583" style="color:#000;fill:#666;stroke-width:.811625;-inkscape-stroke:none"/><path d="M5.755 2.763c-1.889 0-3.3 1.293-3.3 3.25.047.55.726 2.29 1.845 2.428 1.119.14 1.028 1.153 2.697 1.502.797.08 1.657.159 2.133-.27 2.848-2.556-.663-2.654-.663-3.632 0-1.957-.824-3.278-2.712-3.278" style="opacity:1;fill:#d4aa00;stroke:none;stroke-width:.2;stroke-dasharray:none;stroke-opacity:1"/><ellipse cx="7.137" cy="4.813" rx=".355" ry=".393" style="opacity:1;fill:#1a1a1a;stroke-width:.236388"/><ellipse cx="5.797" cy="5.395" rx=".402" ry=".449" style="opacity:1;fill:#1a1a1a;stroke-width:.269071"/><ellipse cx="4.592" cy="10.512" rx=".458" ry=".729" style="opacity:1;fill:#d4aa00;fill-opacity:1;stroke:url(#b);stroke-width:.0811857;stroke-dasharray:none;stroke-opacity:1" transform="matrix(.9527 -.30388 .33581 .94193 0 0)"/><ellipse cx="3.333" cy="11.96" rx=".3" ry=".543" style="opacity:1;fill:#28220b;stroke-width:.255249" transform="matrix(.75755 -.65278 .4498 .89313 0 0)"/><path d="M6.691 6.433c.17.079-.246.461-.703.642-.458.182-.884.188-.953.014s.246-.461.704-.643c.457-.18.745-.11.952-.013" style="color:#000;fill:#d4aa00;stroke-width:.1;-inkscape-stroke:none"/><path d="M8.215 5.708a.37 1.002 69.45 0 0-.704.152.37 1.002 69.45 0 0-.796.698.37 1.002 69.45 0 0 1.078-.015.37 1.002 69.45 0 0 .63-.36.4.4 0 0 1-.02-.114q0-.177-.01-.347a.37 1.002 69.45 0 0-.178-.014" style="opacity:1;fill:#d4aa00;fill-opacity:1;stroke:none;stroke-width:5.26982;stroke-dasharray:none;stroke-opacity:1"/><path d="M5.755 2.763c-1.889 0-3.3 1.293-3.3 3.25.047.55.726 2.29 1.845 2.428 1.119.14 1.028 1.153 2.697 1.502.797.08 1.657.159 2.133-.27 2.848-2.556-.663-2.654-.663-3.632 0-1.957-.824-3.278-2.712-3.278Z" style="opacity:1;fill:none;stroke:#a80;stroke-width:.2;stroke-dasharray:none;stroke-opacity:1"/><ellipse cx="6.246" cy="9.952" rx=".375" ry=".562" style="opacity:1;fill:#d4aa00;fill-opacity:1;stroke:url(#c);stroke-width:.0672566;stroke-dasharray:none;stroke-opacity:1" transform="matrix(.9462 -.3236 .3567 .93422 0 0)"/><ellipse cx="6.37" cy="10.018" rx=".278" ry=".448" style="opacity:1;fill:#28220b;stroke-width:.223396" transform="matrix(.94266 -.33375 .34557 .9384 0 0)"/><path d="M4.24 9.843c2.043.302 2.037.3 2.037.3l.072.574-2.247-.212z" style="opacity:1;fill:#b3b3b3;fill-opacity:1;stroke:none;stroke-width:.0629067;stroke-dasharray:none;stroke-opacity:1"/><path d="m4.196 11.395 2.057.084.182-.46-2.246-.19Z" style="opacity:1;fill:#b3b3b3;fill-opacity:1;stroke:none;stroke-width:.0575396;stroke-dasharray:none;stroke-opacity:1"/><path d="m6.243 11.668-2.057.08-.129.47 2.258.011z" style="opacity:1;fill:#b3b3b3;fill-opacity:1;stroke:none;stroke-width:.0574596;stroke-dasharray:none;stroke-opacity:1"/><ellipse cx="2.724" cy="6.819" rx=".836" ry="1.138" style="fill:#ffe680;fill-opacity:1;stroke:#a80;stroke-width:.1;stroke-dasharray:none;stroke-opacity:1" transform="rotate(-10.605)"/><path d="M3.723 5.082a1.138.836 79.395 0 0-.612 1.273l.821-.154Z" style="fill:#1a1a1a;fill-opacity:1;stroke:none;stroke-width:.0425362;stroke-dasharray:none;stroke-opacity:1"/><path d="M4.754 6.047a1.138.836 79.395 0 1-.612 1.273l-.21-1.119Z" style="fill:#1a1a1a;fill-opacity:1;stroke:none;stroke-width:.0425362;stroke-dasharray:none;stroke-opacity:1"/><ellipse cx="2.724" cy="6.819" rx=".836" ry="1.138" style="fill:none;fill-opacity:1;stroke:#4d4d4d;stroke-width:.1;stroke-dasharray:none;stroke-opacity:1" transform="rotate(-10.605)"/></g><g aria-label="DUMMY" style="font-weight:700;font-size:19.9911px;font-family:Caladea;-inkscape-font-specification:&quot;Caladea Bold&quot;;fill:#806600;stroke-width:.15741"><path d="M14.938 13.053q.36-.08.6-.2.26-.12.519-.38V1.939q-.36-.34-1.2-.62l.08-.779h4.279q2.758 0 4.458.7 1.719.7 2.538 2.179.82 1.46.82 3.798t-.82 3.798-2.578 2.16q-1.74.7-4.538.7h-4.238zm4.857-.42q2.16 0 3.119-1.299.98-1.3.98-4.138 0-2.859-.94-4.138-.94-1.28-3.099-1.28h-.84v10.776q.32.08.78.08M34.569 14.013q-5.318 0-5.318-4.298V1.958q-.18-.18-.62-.34-.44-.18-.9-.26l.1-.819h5.858l-.12.82q-.5.1-.8.24-.3.12-.58.36v7.756q0 1.48.68 2.219.68.74 2.12.74 2.578 0 2.578-3.259V1.918q-.26-.2-.6-.3-.34-.12-.919-.26l.1-.819h4.758l-.12.78q-.86.26-1.32.64v7.416q0 2.34-1.199 3.499-1.2 1.139-3.698 1.139M41.945 13.053q.38-.08.62-.2t.52-.4V1.959q-.42-.36-1.22-.64l.08-.779h4.518l3.259 8.996L52.521.539h4.878l-.12.78q-.78.24-1.22.64v10.495q.46.42 1.5.64l-.14.78H52l.08-.82q.38-.08.62-.2t.5-.4V3.718h-.02l-3.24 10.155h-1.538l-3.559-9.616h-.02v8.197q.46.42 1.5.64l-.14.78h-4.318zM58.838 13.053q.38-.08.62-.2t.52-.4V1.959q-.42-.36-1.22-.64l.08-.779h4.518l3.258 8.996 2.8-8.996h4.877l-.12.78q-.78.24-1.22.64v10.495q.46.42 1.5.64l-.14.78h-5.418l.08-.82q.38-.08.62-.2t.5-.4V3.718h-.02l-3.239 10.155h-1.539l-3.558-9.616h-.02v8.197q.46.42 1.499.64l-.14.78h-4.318zM78.09 13.053q.32-.04.66-.18.339-.16.479-.32V8.496L76.19 2.118q-.14-.32-.44-.5t-.82-.28l.1-.799h5.418l-.12.8q-.84.04-1.24.44l2.38 4.957 2.439-4.798q-.52-.46-1.6-.6l.1-.799h4.478l-.1.8q-.5.02-.82.16t-.439.38l-3.358 6.636v3.939q.46.42 1.499.64l-.14.78h-5.518Z"/></g></svg>