<?xml version="1.0" encoding="UTF-8"?>
<svg width="275.72" height="354.46" version="1.1" viewBox="0 0 275.72 354.46" xml:space="preserve" xmlns="http://www.w3.org/2000/svg"><g transform="translate(0 -9.9844)"><path d="m33.729 9.9844c-18.621 0-33.729 14.884-33.729 33.23v288c0 18.346 15.107 33.23 33.729 33.23h202.38c18.621 0 33.729-14.884 33.729-33.23v-197.31a81.066 79.571 0 0 1-33.729 21.82v175.49h-202.38v-288h105.13a81.066 79.571 0 0 1 34.814-33.23zm42.162 163.38c-4.6378 0-8.4316 3.7394-8.4316 8.3086v19.385c0 4.5692 3.7939 8.3066 8.4316 8.3066h118.05c4.6378 0 8.4316-3.7374 8.4316-8.3066v-19.385c0-4.5692-3.7939-8.3086-8.4316-8.3086zm0 58.154c-4.6378 0-8.4316 3.7374-8.4316 8.3066v19.385c0 4.5692 3.7939 8.3086 8.4316 8.3086h118.05c4.6378 0 8.4316-3.7394 8.4316-8.3086v-19.385c0-4.5692-3.7939-8.3066-8.4316-8.3066z" style="stroke-width:.69748"/><g transform="matrix(2.9977 0 0 2.976 131.92 5.4154)"><path d="m22.462 11.035 2.88 7.097c1.204 2.968 3.558 5.322 6.526 6.526l7.097 2.88c1.312 0.533 1.312 2.391 0 2.923l-7.097 2.88c-2.968 1.204-5.322 3.558-6.526 6.526l-2.88 7.097c-0.533 1.312-2.391 1.312-2.923 0l-2.88-7.097c-1.204-2.968-3.558-5.322-6.526-6.526l-7.097-2.88c-1.312-0.533-1.312-2.391 0-2.923l7.097-2.88c2.968-1.204 5.322-3.558 6.526-6.526l2.88-7.097c0.532-1.312 2.39-1.312 2.923 0z"/><path d="m39.945 2.701 0.842 2.428c0.664 1.915 2.169 3.42 4.084 4.084l2.428 0.842c0.896 0.311 0.896 1.578 0 1.889l-2.428 0.842c-1.915 0.664-3.42 2.169-4.084 4.084l-0.842 2.428c-0.311 0.896-1.578 0.896-1.889 0l-0.842-2.428c-0.664-1.915-2.169-3.42-4.084-4.084l-2.428-0.842c-0.896-0.311-0.896-1.578 0-1.889l2.428-0.842c1.915-0.664 3.42-2.169 4.084-4.084l0.842-2.428c0.31-0.896 1.578-0.896 1.889 0z"/></g></g></svg>
